<svg id="Lager_3_Bild" data-name="Lager 3 Bild" xmlns="http://www.w3.org/2000/svg" viewBox="0 0 352.37 191.14"><defs><style>.cls-1{fill:#fff;}</style></defs><path class="cls-1" d="M408.09,221.5a1.67,1.67,0,0,1-1.67.77c-11.72,0-23.43-.07-35.14,0-3,0-6,.26-8.94.12-7.77-.35-15.54-.06-23.31-.15-2.16,0-4.33.26-6.48.15-7.23-.35-14.46-.09-21.7-.15s-14.42,0-21.63,0c-.4,0-.8.09-1.21.11a11.06,11.06,0,0,1-1.41,0c-.53,0-1.06-.12-1.59-.12H58.11c-.35,0-.69,0-1,0a1.48,1.48,0,0,1-1.34-1.33,1.38,1.38,0,0,1,1.36-1.31c.28,0,.56,0,.85,0h94.28l-.74-.51a1.93,1.93,0,0,1-.95-1.53,8.81,8.81,0,0,0-.24-1.11,3.71,3.71,0,0,1,1.74-4.28c1-.59,1.89-1.41,3.1-1.52a11.8,11.8,0,0,1,4.66.14,1.86,1.86,0,0,0,1,0,23.91,23.91,0,0,0,4.29-1.92,6.6,6.6,0,0,0,.68-.5c1.05-.74,2.11-1.46,3.16-2.21a3.45,3.45,0,0,0,.91-.78,24.55,24.55,0,0,0,2.89-5.57c.8-2.11,1-4.32,1.64-6.46.37-1.36.76-2.71,1.05-4.08a30.88,30.88,0,0,0,.74-6.92,13.25,13.25,0,0,1,.42-3.4,43.7,43.7,0,0,0,.87-5.38c.3-2.3.49-4.61.81-6.9a38.48,38.48,0,0,0,.29-7.43,45,45,0,0,0-.54-5.05,16.76,16.76,0,0,0-.82-2.38c-.38-1.19-.73-2.4-1.09-3.6a12,12,0,0,0-.37-1.34c-1.74-4-3.51-8-5.26-12-.6-1.39-1.16-2.79-1.75-4.18-.75-1.73-1.53-3.44-2.24-5.19s-1.38-3.51-2-5.27q-1.21-3.27-2.37-6.57c-.29-.82-.49-1.68-.75-2.52-.68-2.25-1.45-4.49-2.06-6.76s-1.1-4.71-1.65-7.07c-.43-1.83-.88-3.66-1.29-5.51a11.51,11.51,0,0,1-.21-1.68c-.25-3-.58-6-.69-8.93a47.18,47.18,0,0,1,.25-6.4c.22-2.18.61-4.35,1-6.52.25-1.35.63-2.67.95-4,.12-.52.23-1,.34-1.56a1.58,1.58,0,0,1,1.15-1.32c3.42-1,6.85-2.08,10.23-3.23a19.07,19.07,0,0,0,3.21-1.71,23.2,23.2,0,0,1,4.81-2.33A16.22,16.22,0,0,1,180,53.7c1.87-.23,3.74-.46,5.62-.66a4.42,4.42,0,0,1,1.31,0,21.94,21.94,0,0,1,3.54.92,7.72,7.72,0,0,0,3.64.39c1-.08,2-.24,3-.37a4.15,4.15,0,0,1,.5,0c0,.78-.53,1.13-1,1.47-.84.54-1.73,1-2.53,1.59a6.71,6.71,0,0,0-2.37,3.55A41.67,41.67,0,0,0,189.78,69a64,64,0,0,0-.34,11.58c.24,2.67.41,5.34.78,8s.93,5.45,1.46,8.16c.42,2.16.95,4.3,1.39,6.45s.73,4.08,1.16,6.11.89,4.06,1.43,6.06c.76,2.82,1.66,5.6,2.4,8.43a73.81,73.81,0,0,0,3.63,9.8c1.59,3.87,3.33,7.67,5,11.49.27.6.6,1.18.92,1.81-.29.44-.59.91-.93,1.37a58.71,58.71,0,0,0-3.38,5.66,57.15,57.15,0,0,0-3.22,7.82,52.06,52.06,0,0,0-2.27,7.45,18.6,18.6,0,0,0-.4,3.73c0,2.83,0,5.66,0,8.49A11.52,11.52,0,0,1,196,187a5,5,0,0,0-.48-.64,1.26,1.26,0,0,0-1.21-.34.9.9,0,0,0-.77.85,5.79,5.79,0,0,1-.6,2.14c-.48,1.49-.92,3-1.42,4.49a6.76,6.76,0,0,1-.73,1.62c-1,1.54-2.1,3-3.16,4.57a9.44,9.44,0,0,0-.66,1c-.87,1.74-1.72,3.49-2.58,5.24a3.43,3.43,0,0,0-.33,2,2.88,2.88,0,0,0,.4,1.14,1.19,1.19,0,0,0,1.58.35,7.18,7.18,0,0,0,1.26-.82c.86-.74,1.67-1.52,2.5-2.29a.76.76,0,0,0,.19-.21,29.57,29.57,0,0,1,3.11-4.34,11.32,11.32,0,0,0,1.31-2.39c.56-1.39,1-2.82,1.5-4.25a17.28,17.28,0,0,0,.79-4.51,7.36,7.36,0,0,1,.7-2.79c.68-1.48,1.24-3,1.83-4.55a1.48,1.48,0,0,0,.13-.55,18.87,18.87,0,0,0-.07-3,27.39,27.39,0,0,1-.08-6.77,39.68,39.68,0,0,1,2-9.48,38.4,38.4,0,0,1,4-9c.19-.29.29-.63.45-.93a25.14,25.14,0,0,1,1.25-2.21c1-1.41,2-2.8,3.13-4.14a27.94,27.94,0,0,1,2.18-2.17c-.08.34-.12.53-.17.71-.64,2-1.26,3.95-1.93,5.91-.33,1-.78,1.92-1.11,2.9-.61,1.78-1.18,3.57-1.74,5.37a4.73,4.73,0,0,0-.16,1.3c0,2,0,4,.08,5.94a28.72,28.72,0,0,0,.6,3.9c.37,1.78.78,3.55,1.26,5.3a8.76,8.76,0,0,0,2,3.3c1,1.17,2.22,2.2,3.34,3.29a2.59,2.59,0,0,1,.39.53c1.07,1.89,2.13,3.8,3.32,5.9-.35-.25-.52-.4-.71-.51s-.54-.46-.78-.42a15.86,15.86,0,0,0-2,.51.88.88,0,0,0-.61.77,10.56,10.56,0,0,1-1.57,3.7c-.83,1.44-1.81,2.79-2.66,4.22a29.58,29.58,0,0,0-1.66,3.15c-1,2.29-2,4.63-3,6.92a36.19,36.19,0,0,0-2.18,5.89,16,16,0,0,1-1,2.51,16.59,16.59,0,0,1-.89,1.85,4.74,4.74,0,0,1-.94,1,2.65,2.65,0,0,0-.69.66h48.23c.53,0,1.08.07,1.51-.49-.62-1.25-.3-2.6-.2-3.92a3.73,3.73,0,0,1,3.11-3,5.23,5.23,0,0,1,1.58,0,4.26,4.26,0,0,0,2.53-.5c.83-.37,1.68-.69,2.53-1,.47-.17,1-.16,1.36-.59a.48.48,0,0,1,.25-.11c2.49-.42,4-2.08,5.17-4.13a12.27,12.27,0,0,1,1.19-1.78,6.24,6.24,0,0,0,.9-1.85c.26-.7.42-1.44.63-2.17s.41-1.31.57-2a8.13,8.13,0,0,0-.74-5.11,12.47,12.47,0,0,0-5.53-5.86,25.51,25.51,0,0,1-5.31-4.47,12.28,12.28,0,0,1-2.18-3.48c-.62-1.38-1.38-2.68-2.08-4a17.67,17.67,0,0,1-1.64-4.4c-.29-1.31-.66-2.61-.91-3.93a10.51,10.51,0,0,1-.15-2.24,38.5,38.5,0,0,0-.59-7,34.17,34.17,0,0,1-.36-3.65c-.1-1.75-.11-3.51-.21-5.26a21.12,21.12,0,0,0-.36-2.23c-.42-2.34-.91-4.68-1.25-7a32.62,32.62,0,0,0-2.18-8.25,1.17,1.17,0,0,1,0-.27c.29-.29.59-.13.89-.06a9.53,9.53,0,0,1,4.45,2.52c.72.69,1.32,1.51,2,2.25,1.34,1.46,2.67,2.92,4,4.36,1.53,1.61,3.09,3.21,4.66,4.79a33.07,33.07,0,0,0,4.85,3.89c.62.42,1.2.9,1.8,1.36s1.21,1,1.86,1.44a11.16,11.16,0,0,1,2.66,2.65c.19.29.41.55.68.89-.72.69-.49,1.58-.43,2.44a39.86,39.86,0,0,0,1.2,8.83,42.68,42.68,0,0,0,3.74,9.83c.81,1.39,1.68,2.73,2.55,4.08s1.93,2.87,2.85,4.33a15.64,15.64,0,0,1,.78,1.71c.57,1.19,1.18,2.35,1.72,3.56a25.84,25.84,0,0,1,2.05,8.35c0,.1-.09.22-.21.46-.26-.26-.47-.46-.67-.67s-.55-.69-.86-1a1.53,1.53,0,0,0-2.46-.07,5.07,5.07,0,0,0-1.67,2.76c-.46,1.85-1.08,3.68-1.36,5.56a45.31,45.31,0,0,1-1.37,5.66,10.4,10.4,0,0,1-.45,1.33,21.27,21.27,0,0,0-.85,4.33,2.2,2.2,0,0,1-1.3,1.82,3.61,3.61,0,0,1-1.53.65c-.18,0-.35.36-.61.67h21a7.48,7.48,0,0,0-.67-1,2.59,2.59,0,0,1-.71-1.88,3.92,3.92,0,0,1,1.65-3.11c.14-.12.35-.18.46-.33a4,4,0,0,1,3.2-1.27c1.47-.11,2.94-.2,4.41-.33a4.84,4.84,0,0,0,1.08-.3c.32-.11.62-.32.95-.41a3.5,3.5,0,0,0,2.16-1.68,6.21,6.21,0,0,1,1-1,4.31,4.31,0,0,0,1.29-2.43,12.61,12.61,0,0,0-.35-5.4c-.29-1.06-.47-2.14-.81-3.19a10.88,10.88,0,0,0-4.22-5.81,26.3,26.3,0,0,0-6-3.07,18.82,18.82,0,0,1-4.65-2.82c-2.05-1.49-3.41-3.57-4.93-5.52a60.94,60.94,0,0,1-5.61-9.25c-1.07-2-2.21-4-3.33-6-1.34-2.37-2.7-4.74-4-7.13a2.45,2.45,0,0,1-.26-1.07c0-3,0-6-.08-9.06,0-.78-.1-1.56-.14-2.35,0-.4,0-.81,0-1.22,0-2.11.07-4.21.11-6.32,0-.56.05-1.13.1-1.69.15-2.07.32-4.14.47-6.2.08-1.1.13-2.2.21-3.29.08-1.29.2-2.57.28-3.86.05-.78,0-1.56.12-2.34s.21-1.36.35-2c.37-1.88.73-3.76,1.13-5.64a41.37,41.37,0,0,1,4.07-10.91c1.09-2,2.08-4.1,3.21-6.1a48.73,48.73,0,0,1,4.79-6.65c.76-.92,1.58-1.79,2.4-2.67A10.55,10.55,0,0,1,295,84.35a18.07,18.07,0,0,0,2.09-1.68c1.89,1.36,3.74,2.72,5.62,4,.87.61,1.84,1.09,2.67,1.75a11.75,11.75,0,0,1,2.92,3.78,1.67,1.67,0,0,0,1.08.92c.77.23,1.47.71,2.24,1a13.33,13.33,0,0,1,6.07,4.72,38.8,38.8,0,0,1,3.84,5.45c.73,1.35,1.34,2.77,2,4.17a56.2,56.2,0,0,0,4.39,8.11c1.56,2.35,3.07,4.74,4.57,7.14a9.76,9.76,0,0,0,2.09,2.4,35,35,0,0,0,4.68,3.31,11.22,11.22,0,0,0,4.43,1.14,2,2,0,0,0,.83-.14c1.22-.4,2.44-.79,3.63-1.25a19.83,19.83,0,0,0,2.56-1.19,22.35,22.35,0,0,0,3.23-2.1,24.55,24.55,0,0,0,3.4-3.36,60.21,60.21,0,0,0,5.41-8.17,7.3,7.3,0,0,0,.5-1c1.13-2.94,2.85-5.59,4.13-8.46a3.3,3.3,0,0,1,.36-.51,2.27,2.27,0,0,1,.52,1.45,63.79,63.79,0,0,1-.63,9.86c-.08.49-.1,1-.14,1.48l.18.08a26.41,26.41,0,0,0,1.6-2.45c1.27-2.52,2.48-5.08,3.71-7.62.65-1.36,1.28-2.72,2.09-4.07,0,.75.11,1.5.1,2.25q0,2.59-.12,5.19c0,1.09-.14,2.19-.15,3.28,0,2.17,0,4.34,0,6.51v.1c0,1,.3,1.49,1,1.61a1.45,1.45,0,0,0,1.76-1.07c.44-1.07.79-2.18,1.23-3.26a24.32,24.32,0,0,1,1.64-3.32c0,.22.06.45.06.68-.05,1.91-.1,3.82-.16,5.74a44.89,44.89,0,0,1-1,8c-.42,1.91-1.3,3.73-1.84,5.62-1.15,4.05-3.66,7.25-6.27,10.4-.42.51-.79,1.06-1.21,1.56a7.36,7.36,0,0,1-.77.7,1.15,1.15,0,0,0-.48,1.39,1.55,1.55,0,0,0,1.31.78c.15,0,.3-.07.46-.09a4.79,4.79,0,0,1,.48,0c-.33.48-.57.87-.84,1.25-.75,1-1.49,2-2.25,3-.4.52-.81,1-1.25,1.53-1.13,1.23-2.25,2.46-3.41,3.65s-2.19,2.07-3.24,3.15c-2.27,2.33-5.25,3-8.26,3.45-5.69.82-10.88-.75-15.78-3.56a23.3,23.3,0,0,1-4.74-3.69c-2.23-2.17-4.4-4.4-6.71-6.48A51.72,51.72,0,0,1,317.9,144a28.8,28.8,0,0,1-3.48-5.36c-.84-1.86-1.64-3.73-2.46-5.6-.13-.29-.14-.68-.61-.83a3.72,3.72,0,0,0-.16.51c-.39,2-.7,4.07-1.2,6.07a13.31,13.31,0,0,1-1.35,3.1c-1.05,1.9-2.23,3.72-3.27,5.62a43.75,43.75,0,0,0-2.18,4.59,7,7,0,0,0-.25,4.62c.71,2.34,1.33,4.71,1.89,7.09a34.47,34.47,0,0,0,2.69,7.22,9,9,0,0,0,4.8,4.71c.43.17.83.44,1.25.65.9.45,1.81.87,2.69,1.34a14.84,14.84,0,0,1,1.41.92,24.73,24.73,0,0,1,4.41,3.95c1.51,1.77,3.08,3.48,4.57,5.26a12.12,12.12,0,0,1,1,1.74l-.15.15c-.22-.12-.43-.25-.66-.36a12.2,12.2,0,0,0-1.95-.89,1.41,1.41,0,0,0-1.82.94,5.78,5.78,0,0,0-.42,1.72,23.89,23.89,0,0,0,.54,6.74c.26,1.09.37,2.22.53,3.33a24.58,24.58,0,0,1,.41,5.06c-.11,1.49-.31,3-.46,4.48a3.58,3.58,0,0,1-.58,2.24c-.77.87-1.16,2-1.95,2.84a17.43,17.43,0,0,0-1.82,2.72c-.31.51,0,1,.61,1.08.31,0,.63,0,.95,0h85.39a1.78,1.78,0,0,1,1.78.76ZM187.8,148a4.12,4.12,0,0,1-.24-.38l-4.74-11.19c-1.21-2.86-2.45-5.71-3.59-8.6a98.79,98.79,0,0,1-3.64-10.28c-.42-1.54-.81-3.08-1.25-4.73a170.18,170.18,0,0,0,17.41-6c0-.28,0-.49-.08-.7-.38-1.88-.78-3.75-1.14-5.63-.25-1.36-.44-2.73-.67-4.09-.11-.63-.26-1.26-.41-2-1.4.69-2.69,1.35-4,2a21.53,21.53,0,0,1-2.87,1.16c-1.48.43-3,.73-4.49,1.08a30.3,30.3,0,0,0-5.86,2,1.85,1.85,0,0,1-1.71.19,90.07,90.07,0,0,1-2.22-13.6,66,66,0,0,1-.06-13.77c.64-.27,1.28-.53,1.9-.81A35,35,0,0,1,179.06,70a16.81,16.81,0,0,0,3.72-1,16.73,16.73,0,0,1,4.77-1.34c.25,0,.49-.09.78-.15.29-1.19.58-2.37.85-3.55.09-.42.09-.88.21-1.29.5-1.69,1-3.37,1.56-5.05.11-.35.2-.71.32-1.11-.5,0-.9-.08-1.3-.1-1.85-.11-3.7-.31-5.55-.3a25.83,25.83,0,0,0-7.84,1.41c-3.08,1-6.08,2.2-9.12,3.3-1.35.49-2.7,1-4.07,1.39-1.14.35-2.3.6-3.46.88-.37.09-.45.37-.53.7-.18.79-.35,1.59-.59,2.37a36.57,36.57,0,0,0-1.22,6.57,45.82,45.82,0,0,0-.51,5.07c0,2.76.15,5.53.35,8.29.17,2.35.38,4.71.77,7a107.59,107.59,0,0,0,4,15.7c1,3.13,2.27,6.2,3.35,9.32a83,83,0,0,0,3.47,8.35c1,2.12,1.85,4.33,2.79,6.49,1.5,3.49,3,7,4.54,10.47a53.19,53.19,0,0,1,4.46,14.94,27.75,27.75,0,0,1,.1,3.29c0,1.66-.09,3.32-.14,5a1.82,1.82,0,0,0,.06.46c.12.48.53.64.82.27a17.35,17.35,0,0,1,3.1-2.44,25.28,25.28,0,0,1,4.58-3.14,6.22,6.22,0,0,0,.69-.49l1.54-1.07c.7-.48,1.43-.93,2.07-1.47,2.5-2.15,5-4.33,7.48-6.48a30.07,30.07,0,0,0,4.58-5.15c-.67-1.52-1.35-3-2-4.56s-1.29-3-2-4.65a11.31,11.31,0,0,1-3.46,2.54,10.1,10.1,0,0,0-1.24.85l-1.6,1.15c-.33.23-.69.42-1,.66-1.22.89-2.42,1.81-3.64,2.7C189.82,146.58,188.84,147.25,187.8,148ZM278,127.15c-.27,2.78-.62,5.34-.75,7.91-.17,3-.17,6-.21,9.06,0,3.36,0,6.73,0,10.1a6.13,6.13,0,0,0,.83,3.23c2.36,4.05,4.69,8.11,7,12.16a6.67,6.67,0,0,0,.5.8,1.15,1.15,0,0,0,1.73.25q2.51-1.66,5-3.3a10.93,10.93,0,0,0,4.23-4.7c.22-.48.53-.92.77-1.4a39,39,0,0,0,2.42-4.78c.89-2.47,1.56-5,2.61-7.45a24.57,24.57,0,0,1,2.19-4.15,23.07,23.07,0,0,0,3.45-6.24c.35-1.17.74-2.33,1.08-3.51a1.8,1.8,0,0,0-.29-1.86c-1.1-1.15-2.19-2.33-3.38-3.41-1-.92-2.17-1.7-3.25-2.56-1.28-1-2.51-2.11-3.84-3a102.63,102.63,0,0,0-8.92-6c-.42-.23-.86-.52-.85-1a4.15,4.15,0,0,1,.27-1.65c.88-1.87,1.8-3.73,2.79-5.55a108.56,108.56,0,0,1,5.88-9.54.93.93,0,0,1,1.14-.41,4.69,4.69,0,0,1,1.09.56c2.32,1.61,4.66,3.2,6.94,4.87,1.17.85,2.24,1.83,3.32,2.79.62.55.63,1,.23,1.66s-.61,1.16-.91,1.74q-3.06,6-6.1,12a1.92,1.92,0,0,0-.1.56c2.5,1.82,4.87,3.77,7.44,5.46,1.55-3.11,3.09-6.13,4.57-9.19s3-6.37,4.46-9.55c1.4-3,1.29-4.33-.58-7.08l-.06-.08c-1-1.51-2-3-3-4.55a7.37,7.37,0,0,0-5.05-3.48,6,6,0,0,1-1.27-.28,7,7,0,0,1-3.29-2.85,16.66,16.66,0,0,0-1.88-2.44,27.81,27.81,0,0,0-6.94-4.43,14.9,14.9,0,0,0-2.08,1.41c-2.08,2-3.91,4.16-5.81,6.3a3.37,3.37,0,0,0-.29.37l-4.2,6.82a2.1,2.1,0,0,0-.13.26c-.71,1.68-1.43,3.35-2.13,5-.5,1.22-1,2.45-1.48,3.67a59.62,59.62,0,0,0-2.1,7.53,19.94,19.94,0,0,0-.49,4.87c0,1.14.23,1.41,1.29,1.8a11.88,11.88,0,0,1,1.55.67c3.4,1.84,6.81,3.65,10.19,5.54a28.62,28.62,0,0,1,7.29,5.76.88.88,0,0,1,.22,1.15c-.78,1.51-1.51,3-2.27,4.56-1.81,3.59-3.65,7.16-5.45,10.76-.55,1.08-1,2.2-1.56,3.38a4.65,4.65,0,0,1-.48-.39c-1.47-1.59-2.91-3.21-4.4-4.77a2.64,2.64,0,0,1-.73-2.57,1.23,1.23,0,0,0,0-.19q.54-4.64,1.07-9.28c.21-1.75.35-3.5.62-5.24.24-1.57.3-1.56-1.06-2.41-.13-.08-.26-.18-.4-.25l-4.17-2.17C279.57,128.05,278.86,127.65,278,127.15Z" transform="translate(-55.73 -53.01)"/><path class="cls-1" d="M156.14,166.91a6.49,6.49,0,0,0-2.71-1.2,1.69,1.69,0,0,0-1.45.13,1.3,1.3,0,0,0-.69,1.14c-.07,1.07-.27,2.12-.28,3.18,0,1.35-.85,2.15-1.74,3.1-.15-.34-.27-.59-.39-.83-.22-.48-.44-1-.68-1.43a2.73,2.73,0,0,0-2.16-1.48,2.4,2.4,0,0,0-.74-.08c-1.08.19-1.22.46-.94,1.54a8.22,8.22,0,0,0,1.59,3.47,3.91,3.91,0,0,1,.34.75,37.63,37.63,0,0,1-3.84-.72,4.92,4.92,0,0,1-2.34-2c-.32-.42-.6-.87-.88-1.29-.5,0-.61.37-.74.69-.24.61-.49,1.22-.74,1.83a2.15,2.15,0,0,1-.28.49c-1.06,1.31-2.13,2.61-3.27,4l-.22-1.39c-.08-.53-.14-1.06-.25-1.57a3,3,0,0,0-1.71-2.41,4.11,4.11,0,0,0-2.89-.38c-.36.11-.74.11-1.11.19a5.82,5.82,0,0,0-2,.94,16.25,16.25,0,0,1-3.89,2.27,3.56,3.56,0,0,0-1.4,1.08,16.41,16.41,0,0,0-2.69,4.18,9,9,0,0,1-1.82,2.61c-1,1-2,2.13-2.89,3.23a6,6,0,0,1-3.12,1.81,1.47,1.47,0,0,1-.47,0c-1.69,0-3.38-.14-5.08-.16a6,6,0,0,1-2.91-.67,4.41,4.41,0,0,1-1.52-1.2c-1.42-2-2.8-4.1-4.07-6.23-.68-1.15-1.1-2.46-1.67-3.68-.35-.74-.71-1.47-1.13-2.17a2.09,2.09,0,0,0-.81-.72c-.64-.33-1.32-.59-2-.86a13.13,13.13,0,0,1-4.08-2.66c-.43-.41-.88-.8-1.31-1.2-.62.17-1.23.3-1.82.51-1.31.47-2.16.77-1.83,2.9a4.47,4.47,0,0,1-1.36-1.7,7.72,7.72,0,0,1-.42-1.34,1.19,1.19,0,0,0-.79-1,8.56,8.56,0,0,1-5.52,1.67c.58-.55,1.16-1,1.63-1.54a13.76,13.76,0,0,0,1.38-1.9c.39-.63.68-1.31,1.08-2.11-2.74,1.13-5.33,2.17-8.29,1.11a8.89,8.89,0,0,0,1-1c.53-.66,1-1.37,1.5-2,.25-.33.55-.61.78-1a1.91,1.91,0,0,0,.3-.84c-1.32.77-2.51,1.71-4.17,1.43a6.29,6.29,0,0,1-3.29-2c.61-.18,1.19-.32,1.73-.53a6.53,6.53,0,0,0,3.33-2.62c.44-.71,1-1.36,1.4-2.17-.52.25-1.06.48-1.56.78a6.13,6.13,0,0,1-4.72.63,5.13,5.13,0,0,1-3.48-2.37l1.43-.15a7.74,7.74,0,0,0,3.5-1,1.74,1.74,0,0,0,.89-1.14c.13-.6.31-1.19.49-1.88a3.69,3.69,0,0,0-.71-.09,3.57,3.57,0,0,1-3-.88c-.93-.84-1.87-1.67-2.79-2.53a5.63,5.63,0,0,1-.62-.87,2.9,2.9,0,0,1,1.86,0,4.58,4.58,0,0,0,2.78-.15,9.75,9.75,0,0,0,3.55-1.89l.2-.22c-1.06-.94-2.07-1.93-3.18-2.78a8.82,8.82,0,0,1-3.22-5.48c0-.06,0-.12.07-.27l.69.44A27.64,27.64,0,0,0,66.45,137a4.37,4.37,0,0,0,3.17.5c.15,0,.31-.14.45-.11a3.12,3.12,0,0,0,2.42-.81,27.1,27.1,0,0,0,4.6-3.88c2-2.11,3.78-4.38,4.42-7.32a5.61,5.61,0,0,0,.23-1.38,3.75,3.75,0,0,0-.34-1.44c-.67-1.34-1.51-2.59-2.18-3.94a9.3,9.3,0,0,0-2-2.38c-.85-.82-1.84-1.51-2.76-2.26s-2-1.63-3-2.46c2.29-1.74,4.57-3.53,7.58-3.88.9-.1,1.81-.06,2.71-.07a4.87,4.87,0,0,0,.85,0,21.25,21.25,0,0,1,4.51-.08,10.53,10.53,0,0,1,2.48.51c.39.09.77.25,1.23.4l1.65-2.61a53.48,53.48,0,0,1,4.92-6.66c1-1.21,2.14-2.38,3.19-3.6a5.35,5.35,0,0,0,.91-1.4,15.66,15.66,0,0,1,1.8-2.86c1.74-2.42,3.51-4.83,5.09-7.35a56.24,56.24,0,0,1,6.16-8.07c.15-.16.32-.29.49-.44a.64.64,0,0,1,.21.84c-.18.53-.29,1.09-.45,1.63a7.41,7.41,0,0,0-.13,3,1,1,0,0,0,1.58.87,4.42,4.42,0,0,0,1.43-1c1.58-1.91,3.11-3.86,4.63-5.81a20.29,20.29,0,0,1,4.42-4.21c1-.7,2-1.41,3-2.08a13.53,13.53,0,0,1,1.62-.75l-.43,2.8.2.12c1-.64,2.07-1.26,3.09-1.91a36.68,36.68,0,0,1,8.28-4,56.46,56.46,0,0,0,7.13-2.92,18.22,18.22,0,0,0,3.8-2,1.39,1.39,0,0,1,.49-.27,28.84,28.84,0,0,0,4.8-2.18c.53-.25,1.11-.4,1.66-.6l.12.17a5.11,5.11,0,0,1-.61.62,11,11,0,0,0-3.2,4.48,20.23,20.23,0,0,0-1.54,4.64c-.45,2.31-1,4.6-1.44,6.92a35.28,35.28,0,0,0-.45,7.33,65.41,65.41,0,0,0,1.44,11.5c.84,3.87,1.9,7.69,2.72,11.56a38.44,38.44,0,0,0,2.25,6.88c.8,1.94,1.4,4,2.11,6s1.4,3.77,2.11,5.65c.57,1.52,1.15,3,1.75,4.57.74,1.86,1.55,3.7,2.25,5.59.77,2,1.42,4.15,2.18,6.22.61,1.68,1.31,3.33,1.94,5,.55,1.47,1,3,1.58,4.43a1,1,0,0,1-.17,1.13c-.22.22-.35.55-.6.72a4.84,4.84,0,0,0-1.62,2.68c-.42,1.25-.86,2.49-1.26,3.75-.28.86-.5,1.74-.75,2.62a1.32,1.32,0,0,1-.37.64c0-.56-.13-1.12-.14-1.68,0-1.95,0-3.9-.08-5.84a2.7,2.7,0,0,0-.32-1.25,1.17,1.17,0,0,0-2.07,0,2,2,0,0,0-.22.72c-.14,1-.32,2-.38,3.07-.1,1.66-.11,3.32-.15,5,0,.21,0,.42,0,.69-.44-.15-.52-.44-.6-.8-.25-1.07-.53-2.13-.81-3.19a15.49,15.49,0,0,0-2.15-4.58c-.64-1-1.33-1.9-2-2.84a2.81,2.81,0,0,0-2.08-1.15c-1-.1-1.94-.2-2.91-.22a1.66,1.66,0,0,0-1.75.77l1.92,1.79c.61.58,1.24,1.16,1.84,1.76a7,7,0,0,1,1.72,4,29.17,29.17,0,0,1,.2,3.37c0,.18,0,.35,0,.74l-2-2.07c-.37-.38-.73-.78-1.13-1.13a2,2,0,0,0-2.59,0,1.18,1.18,0,0,0-.22,1.75A15.06,15.06,0,0,0,154,159.9a7.5,7.5,0,0,1,2.23,6.06C156.23,166.23,156.19,166.5,156.14,166.91Zm-3.45-21.41.08.19c1-.17,2.11-.31,3.15-.53a5.12,5.12,0,0,1,3.61.68,6.46,6.46,0,0,1,2.22,2c.16.23.34.53.67.32s.18-.55,0-.82-.28-.34-.38-.53c-1.19-2.24-2.38-4.49-3.54-6.75-1.57-3-3.09-6.11-4.7-9.13-1.07-2-1.44-4.28-2.73-6.18-.34-.51-.17-.82.4-1.14l2.74-1.46,6-3.23s.06-.1.14-.23l-4.46-11.4c-2.14,1.08-4.23,2.2-6.38,3.22-1.5.72-3.07,1.28-4.59,2a2.52,2.52,0,0,1-1.64.22,2.18,2.18,0,0,1-.22-.31c-.57-1.31-1.15-2.62-1.72-3.94l-3.69-8.56a85.5,85.5,0,0,1-4-10.06,3,3,0,0,1,1.16-3.61,10.11,10.11,0,0,0,1.4-1.12,47.09,47.09,0,0,1,7.89-6.1,40,40,0,0,1,6.34-3.27,1.49,1.49,0,0,0,1-1.08c.27-1.06.47-2.15.83-3.19a65.05,65.05,0,0,0,2-8.72,1,1,0,0,0-.23-1.1l-3.49,1.6c-.62.28-1.26.54-1.89.8-.26.11-.53.18-.79.3-1.68.77-3.35,1.57-5,2.33a42.07,42.07,0,0,0-6.57,3.47c-1.84,1.25-3.67,2.53-5.5,3.8-1.25.88-1.51.8-1.91-.64-.12-.43-.26-.84-.44-1.4-1.22,1.54-2.32,3-3.45,4.33-1.43,1.75-2.9,3.47-4.35,5.2a4.65,4.65,0,0,1-.71.86q-1.35,1-2.76,2c-.39.26-.41.48-.14.83a8,8,0,0,1,.71,1.11,91.57,91.57,0,0,1,4.34,8.77c1.2,3,2.63,5.84,3.83,8.81a94.2,94.2,0,0,0,6.67,13.7,1.26,1.26,0,0,0,1,.69,2.11,2.11,0,0,0,.94-.36,14.58,14.58,0,0,1,6.58-1.72c.69,0,1.37-.07,2.06-.1.87,0,1.75-.15,2.62-.12a9,9,0,0,1,4,1.51c1.07.61,2,1.38,3,2.09.55.4.54.9,0,1.25-.84.48-1.71.92-2.57,1.37s-2.11.83-2.62,2a2,2,0,0,1-.29.37c-1.32,1.67-2.66,3.33-3.95,5a3.53,3.53,0,0,0-.8,2.64,7.54,7.54,0,0,0,1.3,3.49c1.25,1.58,2.5,3.15,3.8,4.67a3.07,3.07,0,0,0,1.87,1,18.39,18.39,0,0,0,4.85.22,1.2,1.2,0,0,1,0,1.66C153.81,143.94,153.24,144.71,152.69,145.5Zm-27.63,3.3-.08-.21a2.22,2.22,0,0,0-.84.24,19.17,19.17,0,0,0-3.5,3.77l1,.6C123.29,152,124,150.25,125.06,148.8Zm-33.15-1.87a14.54,14.54,0,0,0,2.59,5.13l1.17-.64A47,47,0,0,0,91.91,146.93Z" transform="translate(-55.73 -53.01)"/><path class="cls-1" d="M237.78,129c-2.93,1.05-5.71,2-8.46,3.07a21.54,21.54,0,0,0-2.28,1.3c-2.7,1.44-5.1,3.33-7.67,5-2.14,1.37-4.22,2.85-6.35,4.24-.94.62-2,1.11-2.91,1.73a14.37,14.37,0,0,0-1.49,1.34c-.22-.38-.45-.7-.61-1.05-.76-1.69-1.45-3.42-2.25-5.08a121.79,121.79,0,0,1-6.67-17.41c-1.77-5.75-3.05-11.61-4.54-17.42-.88-3.42-1.43-6.89-2.12-10.34-.45-2.26-.57-4.55-.83-6.83-.09-.78-.2-1.56-.26-2.34s-.05-1.38-.1-2.07c-.07-.9-.19-1.81-.26-2.72a18.39,18.39,0,0,1,0-4.51,14.4,14.4,0,0,0-.06-2.07c0-1.88,0-3.78.12-5.65a19.22,19.22,0,0,1,1.93-7.34,3.3,3.3,0,0,0,.28-.89c.19-.87.43-1,1.29-1.19a4.91,4.91,0,0,1,1.75.13,28,28,0,0,0,5.39.81,14.46,14.46,0,0,1,2.15.25,13.59,13.59,0,0,0,4.91-.27L207,61.39a4.36,4.36,0,0,0-.5.56.93.93,0,0,0,0,1.22c.59.66,1.16,1.34,1.8,1.94a1.33,1.33,0,0,0,.94.2c2-.18,4-.39,6-.61a15.52,15.52,0,0,0,2-.35,50.12,50.12,0,0,1,8.08-1.26c1.94-.18,3.87-.4,5.8-.59.31,0,.62,0,.92,0a1.34,1.34,0,0,1,.11.32c.12,3.24.18,6.48.35,9.71s.43,6.15.63,9.22c.14,2.1.22,4.2.36,6.3.12,1.79.29,3.58.43,5.37.18,2.38.31,4.77.51,7.15.19,2.13.44,4.25.67,6.37.14,1.38.27,2.76.43,4.13.34,3,.72,5.93,1.06,8.9.23,2,.42,4,.66,6C237.43,127,237.62,128,237.78,129ZM209.3,142.68l3.25-2.3c1.62-1.15,3.23-2.31,4.86-3.43.7-.48.75-.78.19-1.37a11,11,0,0,1-1.53-1.89c-1.19-2-2.33-4.1-3.42-6.19a33,33,0,0,1-1.64-3.7c-1.47-3.89-2.43-7.93-3.58-11.92a121.12,121.12,0,0,1-3.2-15.41c-.42-2.8-.76-5.61-1.13-8.41-.1-.76-.15-1.52-.23-2.28a.45.45,0,0,1,.37.24c1.72,3.49,3.42,7,5.16,10.47,1.24,2.47,2.52,4.92,3.79,7.38.69,1.33,1.33,2.7,2.11,4,1.19,2,2.47,3.94,3.74,5.89a86.73,86.73,0,0,0,8.29,10.71,2.94,2.94,0,0,1,.35.44,24.86,24.86,0,0,0,3.38,4.14.7.7,0,0,0,.92.19c.6-.25,1.25-.4,1.87-.62l3-1.09c-.11-.79-.16-1.57-.32-2.33a58.26,58.26,0,0,1-1-7.66c-.21-2.73-.4-5.46-.67-8.18-.36-3.54-.9-7.06-1.16-10.6-.46-6.17-.76-12.36-1.13-18.55-.15-2.57-.32-5.14-.47-7.72-.06-1-.1-1.94-.14-2.92-.06-1.38-.1-2.76-.17-4.14a8.18,8.18,0,0,0-.2-1c-.5,0-.91.07-1.31.08-1.89,0-3.72.68-5.63.43a2.07,2.07,0,0,0-.46.09c-.42.08-.84.18-1.27.24a1,1,0,0,0-.84.64,4.91,4.91,0,0,0-.26,2.31c.18,2.7.34,5.4.52,8.1.06,1,.11,2,.25,3q.9,6.08,1.2,12.2c.17,3.5.61,7,1.11,10.41.12.78.19,1.56.29,2.35l-.21.06c-.6-1-1.25-2.08-1.8-3.16-.93-1.85-1.77-3.74-2.68-5.61-.47-1-1-1.89-1.47-2.84-1.55-3-3.07-6-4.65-9a35.81,35.81,0,0,0-2.05-3.49,82.36,82.36,0,0,1-5.45-9.47,6.59,6.59,0,0,1-.81-2.87c-.05-1.76-.12-3.52-.15-5.28,0-.82-.14-.95-1-.95s-1.62-.09-2.43-.14a5.29,5.29,0,0,0-.56-.05,12.35,12.35,0,0,1-3.72-.53,10.64,10.64,0,0,0-2.05-.24.7.7,0,0,0-.77.55c-.36,1.23-.83,2.45-1.09,3.7a39,39,0,0,0-.81,8.22c0,3.5.19,7,.37,10.47,0,1,.08,2,.17,3a59.11,59.11,0,0,0,1.21,7.82,3.43,3.43,0,0,1,0,.56,9.25,9.25,0,0,0,.07,1.4c.53,2.58,1.05,5.17,1.66,7.73,1.28,5.32,2.48,10.66,4,15.92a122.27,122.27,0,0,0,4.54,12.79A52.92,52.92,0,0,0,209.3,142.68Z" transform="translate(-55.73 -53.01)"/><path class="cls-1" d="M234.19,62.59a10.79,10.79,0,0,1,3.92.19c2.13.52,4.34.76,6.47,1.27q7,1.65,13.89,3.47a30.45,30.45,0,0,1,4,1.47,13.75,13.75,0,0,0,5,.81c1.86,0,3.72,0,5.58,0a13.6,13.6,0,0,1,1.76.26.73.73,0,0,1,.66.78,7.2,7.2,0,0,1,0,1c-.41,3.65-.73,7.31-2.21,10.76-.94,2.19-1.78,4.43-2.65,6.65-.32.82-.65,1.63-.94,2.46a43.41,43.41,0,0,1-3.67,8,16.32,16.32,0,0,0-2,9.16c.18,5.15.48,10.3.45,15.46,0,4.18.23,8.35.31,12.53.05,2.36,0,4.72,0,7.08v1.76c-.95-.74-1.79-1.33-2.56-2s-1.39-1.28-2.05-2-1.55-1.65-2.34-2.45-1.44-1.41-2.15-2.12a4.64,4.64,0,0,1-.62-.71,28,28,0,0,0-3.95-4.67,10.4,10.4,0,0,0-4.36-2.71,7.17,7.17,0,0,0-3.16-.25c-.62.08-1.25.05-1.88.09a13.15,13.15,0,0,0-1.39.16.72.72,0,0,1-.95-.51,1.43,1.43,0,0,1-.08-.37c-.38-2.89-.8-5.78-1.13-8.68-.29-2.59-.49-5.2-.72-7.8-.08-1-.11-1.94-.21-2.91-.22-2.06-.46-4.12-.69-6.18-.07-.65-.11-1.31-.17-2-.28-2.94-.58-5.88-.82-8.82-.15-1.76-.2-3.52-.29-5.27-.18-3.49-.28-7-.57-10.45-.24-2.86-.34-5.72-.35-8.58,0-1.41,0-2.82,0-4.23A6.17,6.17,0,0,0,234.19,62.59Zm24.46,42.13c0-.06,0-.1.06-.11l.41-.24a10,10,0,0,0,3.9-3.46c.64-1,1.18-2.14,1.8-3.19a64,64,0,0,0,5.78-12.13c.73-2.17,1.63-4.27,2.17-6.51a28.59,28.59,0,0,0,.86-6.23c0-.73,0-.84-.73-1a17.61,17.61,0,0,0-2.8-.29,29.9,29.9,0,0,1-5.9-.6,12,12,0,0,1-3-.91,23,23,0,0,0-4.81-1.9c-3.47-.85-7-1.68-10.45-2.45-2.48-.55-5-1-7.49-1.45a5.72,5.72,0,0,0-2.57-.17c.06,2.13.09,4.2.17,6.27.1,2.61.24,5.22.34,7.82.2,4.81.35,9.62.58,14.42.09,2,.31,4.08.52,6.11.23,2.18.56,4.36.77,6.54.34,3.41.59,6.83.94,10.24.22,2.13.58,4.23.84,6.36.16,1.37.24,2.75.35,4.13.07.79.35,1,1.15,1,.47,0,.94,0,1.41,0a10.07,10.07,0,0,1,4.07.63c.92.36,1.82.79,2.71,1.18a1.65,1.65,0,0,0,.47-1.79c-.43-2.31-.89-4.63-1.15-7-.43-3.75-.7-7.51-1-11.27,0-.24,0-.48,0-.85.33.25.59.41.81.61,1.83,1.59,3.6,3.23,5.48,4.76a2.94,2.94,0,0,1,1.15,2.32c.11,2.32.26,4.63.37,7,.09,2.07.07,4.15.21,6.21a47.93,47.93,0,0,0,.5,6.09,5.49,5.49,0,0,0,1.75,3.11c1.32,1.26,2.6,2.56,3.89,3.85,0,0,.07.12.13.14a1.78,1.78,0,0,0,.75.16c.31-.08.36-.39.3-.71a4.7,4.7,0,0,1-.08-.92c0-2.24,0-4.47-.08-6.7-.13-4-.32-8-.47-12.07,0-.53.1-1.06.08-1.59,0-.75-.12-1.5-.16-2.25-.17-2.79-.33-5.59-.51-8.38a3.31,3.31,0,0,0-1.49-2.6c-.44-.3-.85-.64-1.27-1A1.57,1.57,0,0,1,258.65,104.72Z" transform="translate(-55.73 -53.01)"/><path class="cls-1" d="M273.21,152.93a5.63,5.63,0,0,1-.62-.55,27.16,27.16,0,0,0-5-4.53,1.73,1.73,0,0,1-.84-1.47c0-1.56-.07-3.13-.12-4.7,0-.94-.06-1.88-.09-2.82-.07-1.92-.13-3.83-.2-5.74-.08-2.08-.19-4.15-.24-6.23-.09-4.24-.2-8.49-.19-12.73,0-3,.21-6.1.32-9.15a10.66,10.66,0,0,1,1.38-4.46c.22-.42.44-.83.63-1.26.86-2,1.74-4,2.55-6.09q1.9-4.82,3.71-9.68c.79-2.12,1.52-4.26,2.26-6.4.25-.71.41-1.45.65-2.16.14-.42.37-.8.52-1.21.32-.81.61-1.64.92-2.46,2.71.82,12.16,5.79,15,8.77a8.35,8.35,0,0,1-.74,1.42c-2.16,2.76-4,5.71-5.91,8.64s-3.64,5.95-5.26,9a66.51,66.51,0,0,0-3.16,6.53,48.26,48.26,0,0,0-3.32,15.61c-.11,2.73-.43,5.45-.64,8.18-.1,1.41-.17,2.83-.25,4.24q-.39,7.2-.76,14.4c-.06,1.19,0,2.39,0,3.58A1.26,1.26,0,0,1,273.21,152.93Zm7-79a3.07,3.07,0,0,0-.26.43c-.49,1.16-1,2.31-1.43,3.49-.29.79-.4,1.65-.71,2.43-1.16,3.06-2.28,6.13-3.59,9.12s-2.92,6.2-4,9.46a58.88,58.88,0,0,0-1.89,5.72,40,40,0,0,0-.73,10.13c.12,3.65.28,7.29.36,10.94s.1,7.35.16,11c.05,3,.12,6,.18,9a1.23,1.23,0,0,0,0,.28,1.26,1.26,0,0,0,.23.48c1,.95,2,1.89,3,2.83a7,7,0,0,0,.76.53c0-2,.08-3.78.11-5.57,0-1.26,0-2.52,0-3.77s.35-2.68.37-4a71.85,71.85,0,0,1,.54-7.33c.26-2.34.38-4.7.57-7a55.21,55.21,0,0,1,1-9c.43-1.68.85-3.36,1.41-5a45.62,45.62,0,0,1,4.37-9.69,6.54,6.54,0,0,0,.3-.59q2.34-4.3,4.69-8.61a8.1,8.1,0,0,1,.58-.86l5.5-7.59c-.5-.38-.95-.79-1.45-1.1-2.43-1.51-4.88-3-7.32-4.48A7.42,7.42,0,0,0,280.18,73.93Z" transform="translate(-55.73 -53.01)"/><path class="cls-1" d="M155.92,230.76a6,6,0,0,1,5.81,3c1.88,3.2.89,8-2.74,9.74-2.45,1.14-6.55.94-8.51-2.13-1.57-2.45-1.69-7.1,1.48-9.45A6.12,6.12,0,0,1,155.92,230.76Zm4.59,6.61a16.17,16.17,0,0,0-.36-2.12,4.26,4.26,0,0,0-7.56-1.33,6.33,6.33,0,0,0-.29,6.54,4.2,4.2,0,0,0,7.5-.17A8.13,8.13,0,0,0,160.51,237.37Z" transform="translate(-55.73 -53.01)"/><path class="cls-1" d="M238.28,234l-1.87.44a3,3,0,0,0-2.25-2,5.55,5.55,0,0,0-3.42,0l-.35.14a1.73,1.73,0,0,0-1.23,1.62,1.59,1.59,0,0,0,1.27,1.47c1,.3,2.08.49,3.11.75a26.07,26.07,0,0,1,3.18.84,3,3,0,0,1,2.07,3.49,3.43,3.43,0,0,1-1.84,2.48,6,6,0,0,1-2.5.78,12,12,0,0,1-4.3-.24,5.43,5.43,0,0,1-3.8-3.34l1-.24a1,1,0,0,1,1.28.57,3,3,0,0,0,1.68,1.44,7.2,7.2,0,0,0,4.54.22,2.83,2.83,0,0,0,1.14-.62,1.64,1.64,0,0,0-.3-2.86,7.9,7.9,0,0,0-1.87-.62c-1.25-.29-2.53-.49-3.77-.8a3.54,3.54,0,0,1-2.67-2,3.06,3.06,0,0,1,1-3.62,5.83,5.83,0,0,1,2.89-1.07,10.67,10.67,0,0,1,3.56.16A4.79,4.79,0,0,1,238.28,234Z" transform="translate(-55.73 -53.01)"/><path class="cls-1" d="M379.1,234l-1.91.44a3.17,3.17,0,0,0-2.35-2,5.6,5.6,0,0,0-3.34.06l-.27.09c-.71.34-1.34.78-1.31,1.66a1.63,1.63,0,0,0,1.35,1.51c1,.3,2,.47,3,.72a26.07,26.07,0,0,1,3.18.84,3,3,0,0,1,2.12,3.2,3.21,3.21,0,0,1-1.25,2.34A5.67,5.67,0,0,1,375.4,244a10.6,10.6,0,0,1-5.38-.52,5.55,5.55,0,0,1-3-3l1.38-.29a.62.62,0,0,1,.76.37,4.24,4.24,0,0,0,3.94,2.13,6,6,0,0,0,2.87-.36,2.13,2.13,0,0,0,1.35-1.58,1.43,1.43,0,0,0-.42-1.35,3.5,3.5,0,0,0-1.83-.91c-1.17-.25-2.35-.44-3.51-.72a10.43,10.43,0,0,1-2-.69,3.06,3.06,0,0,1-.25-5.33,5.64,5.64,0,0,1,2.37-.85,9.3,9.3,0,0,1,4.82.43A4.9,4.9,0,0,1,379.1,234Z" transform="translate(-55.73 -53.01)"/><path class="cls-1" d="M122.14,239.51l1.88.32a5.7,5.7,0,0,1-2.26,3.34c-1.86,1.31-6.41,1.48-8.44-.92a7.43,7.43,0,0,1-1.77-5.77,6.6,6.6,0,0,1,.75-2.59,5.8,5.8,0,0,1,4.86-3.1,9.71,9.71,0,0,1,3.09.2,5.15,5.15,0,0,1,3.78,3.92l-1.89.34c-.3-.55-.54-1.05-.84-1.52a3.39,3.39,0,0,0-2.76-1.55c-3.06-.23-4.34,1.91-4.66,4a7.31,7.31,0,0,0,.38,3.88,4.14,4.14,0,0,0,6.34,1.83A5.14,5.14,0,0,0,122.14,239.51Z" transform="translate(-55.73 -53.01)"/><path class="cls-1" d="M340.46,239.52l1.87.3a5.86,5.86,0,0,1-1.62,2.86c-2.09,2-7.39,2.08-9.48-.9a7.9,7.9,0,0,1-.49-8.11,5.84,5.84,0,0,1,4.71-2.89,11.79,11.79,0,0,1,2.72.11,5.14,5.14,0,0,1,4.13,4l-1.86.35-.47-.93a4.06,4.06,0,0,0-7.24.12,7,7,0,0,0-.09,5.77,4.13,4.13,0,0,0,6.26,1.68A5.24,5.24,0,0,0,340.46,239.52Z" transform="translate(-55.73 -53.01)"/><path class="cls-1" d="M189.28,231.09h2c0,.37,0,.7,0,1,0,2.29,0,4.59,0,6.89,0,.37,0,.75,0,1.13a2.27,2.27,0,0,0,2,2.34,5.75,5.75,0,0,0,3.16,0,2.55,2.55,0,0,0,2-2.56c0-.72,0-1.44,0-2.17v-6.58h1.76c0,.24.06.49.06.73,0,2.49,0,5,0,7.46a7.2,7.2,0,0,1-.2,1.67,3.6,3.6,0,0,1-2.3,2.56,9.27,9.27,0,0,1-5.75.22,3.64,3.64,0,0,1-2.82-3.38,8.77,8.77,0,0,1-.06-1c0-2.42,0-4.85,0-7.27Z" transform="translate(-55.73 -53.01)"/><path class="cls-1" d="M87.11,243.75H84.94c-.42-.95-.87-1.91-1.26-2.89a.88.88,0,0,0-1-.67c-1.73,0-3.46,0-5.2,0l-1.4,3.55H74.34c1.72-4.24,3.42-8.41,5.13-12.63h2.46Zm-4.21-4.9c-.8-2-1.55-3.86-2.37-5.92-.85,2.07-1.66,3.93-2.36,5.92Z" transform="translate(-55.73 -53.01)"/><path class="cls-1" d="M270.22,232.45v11.27h-2.07V232.5H263.6v-1.39h11.08c0,.25.05.46.05.67a5.9,5.9,0,0,1,0,.67Z" transform="translate(-55.73 -53.01)"/><path class="cls-1" d="M303,243.76H301.1c-.2-.66-.27-11-.08-12.63H303Z" transform="translate(-55.73 -53.01)"/><path class="cls-1" d="M252.5,99.53c-1.87-1.1-3.76-2.2-5.64-3.32-.65-.38-1.28-.8-1.94-1.16a1,1,0,0,1-.6-1.06c0-1.57,0-3.14,0-4.71,0-3.68,0-7.36-.07-11,0-1.44-.08-2.88-.12-4.33a5,5,0,0,1,.06-.54c2.37-.05,14.22,3.87,17.76,5.88a23.05,23.05,0,0,1-1.71,9.5,35.45,35.45,0,0,1-6.64,9.75c-.26.27-.5.56-.76.83A1.4,1.4,0,0,1,252.5,99.53Z" transform="translate(-55.73 -53.01)"/></svg>